# xmcd
#
# Track frame offsets:
# 150
# 8983
# 23934
# 43351
# 56194
# 70221
# 83727
# 95503
# 109983
# 118310
# 136781
# 150571
# 168078
# 182147
# 196343
# 209128
#
# Disc length: 3018 seconds
#
# Revision: 1
# Processed by: cddbd v1.5.2PL0 Copyright (c) Steve Scherf et al.
# Submitted via: CedeCatalogueitor 2.6.0.6 http://personales.ya.com/cdcatalogueitor
#
DISCID=e80bc810
DTITLE=Modular - Fantasías De Un Robot Psicodélico
DYEAR=1900
DGENRE=
TTITLE0=Revolucion De Vegetales
TTITLE1=Perdidos En El Espacio
TTITLE2=La Poción Del Dr. Hofmann
TTITLE3=Picnic En El Arco Iris
TTITLE4=Playa Quiquini
TTITLE5=Los Mutantes
TTITLE6=Ovni
TTITLE7=Festin Surreal
TTITLE8=Master En Tarot
TTITLE9=Hombre Hormiga
TTITLE10=El Fubón De Broadway
TTITLE11=Hippie
TTITLE12=Flasheando
TTITLE13=Habitantes Del Parlante
TTITLE14=La Pipa Del Nomada
TTITLE15=Tour Fantastico
EXTD=
EXTT0=
EXTT1=
EXTT2=
EXTT3=
EXTT4=
EXTT5=
EXTT6=
EXTT7=
EXTT8=
EXTT9=
EXTT10=
EXTT11=
EXTT12=
EXTT13=
EXTT14=
EXTT15=
PLAYORDER=
